HIERARCHY
ROOT hip
{
	OFFSET 0.000000 0.000000 0.000000 
	CHANNELS 6 Xposition Yposition Zposition Xrotation Zrotation Yrotation
	JOINT abdomen
	{
		OFFSET 0.000000 3.402643 0.000000 
		CHANNELS 3 Xrotation Zrotation Yrotation
		JOINT chest
		{
			OFFSET 0.000000 8.438565 -0.680529 
			CHANNELS 3 Xrotation Zrotation Yrotation
			JOINT neck
			{
				OFFSET 0.000000 10.207942 -0.272212 
				CHANNELS 3 Xrotation Zrotation Yrotation
				JOINT head
				{
					OFFSET 0.000000 3.130431 0.000000 
					CHANNELS 3 Xrotation Zrotation Yrotation
					End Site
					{
						OFFSET 0.000000 3.130435 0.000000 
					}
				}
			}
			JOINT lCollar
			{
				OFFSET 3.470700 6.669187 -0.816635 
				CHANNELS 3 Yrotation Zrotation Xrotation
				JOINT lShldr
				{
					OFFSET 3.198488 0.000000 0.000000 
					CHANNELS 3 Zrotation Yrotation Xrotation
					JOINT lForeArm
					{
						OFFSET 10.139888 0.000000 0.000000 
						CHANNELS 3 Yrotation Zrotation Xrotation
						JOINT lHand
						{
							OFFSET 8.370511 0.000000 0.000000 
							CHANNELS 3 Zrotation Yrotation Xrotation
							End Site
							{
								OFFSET 4.083176 0.000000 0.000000 
							}
						}
					}
				}
			}
			JOINT rCollar
			{
				OFFSET -3.470700 6.669187 -0.816635 
				CHANNELS 3 Yrotation Zrotation Xrotation
				JOINT rShldr
				{
					OFFSET -3.198488 0.000000 0.000000 
					CHANNELS 3 Zrotation Yrotation Xrotation
					JOINT rForeArm
					{
						OFFSET -10.139888 0.000000 0.000000 
						CHANNELS 3 Yrotation Zrotation Xrotation
						JOINT rHand
						{
							OFFSET -8.370511 0.000000 0.000000 
							CHANNELS 3 Zrotation Yrotation Xrotation
							End Site
							{
								OFFSET -4.083176 0.000000 0.000000 
							}
						}
					}
				}
			}
		}
	}
	JOINT lThigh
	{
		OFFSET 5.308129 -1.633274 1.361059 
		CHANNELS 3 Xrotation Zrotation Yrotation
		JOINT lShin
		{
			OFFSET -2.041588 -20.007561 0.000000 
			CHANNELS 3 Xrotation Zrotation Yrotation
			JOINT lFoot
			{
				OFFSET 0.000000 -19.190928 -1.224953 
				CHANNELS 3 Xrotation Yrotation Zrotation
				End Site
				{
					OFFSET 0.000000 -2.449906 4.627600 
				}
			}
		}
	}
	JOINT rThigh
	{
		OFFSET -5.308129 -1.633274 1.361059 
		CHANNELS 3 Xrotation Zrotation Yrotation
		JOINT rShin
		{
			OFFSET 2.041588 -20.007561 0.000000 
			CHANNELS 3 Xrotation Zrotation Yrotation
			JOINT rFoot
			{
				OFFSET 0.000000 -19.190928 -1.224953 
				CHANNELS 3 Xrotation Yrotation Zrotation
				End Site
				{
					OFFSET 0.000000 -2.449906 4.627600 
				}
			}
		}
	}
}
MOTION
Frames: 16
Frame Time: 0.033333
-6.523205 36.450207 42.822399 -1.537272 -0.279680 -100.308769 0.000000 0.000000 0.000000 20.726532 0.947258 0.234504 -30.872988 0.553415 -55.482368 5.588009 2.050767 -0.214706 -2.812533 -0.096698 -0.019508 -76.010590 -18.605169 -23.003202 -26.889511 -0.241530 6.345939 9.683182 -0.170156 -6.219730 2.792995 0.077173 -0.019521 30.087011 15.735487 -69.251671 68.328506 1.258901 5.005114 -0.550125 -14.213703 -5.616487 -27.437181 20.612795 -6.330616 51.268913 -4.954835 -4.046611 -27.892521 0.910500 -13.054273 -37.902428 -23.552954 19.652863 55.184181 3.829641 4.176715 -17.520714 -2.020915 23.774055 
-6.559721 36.531002 43.023056 -1.373934 -0.249970 -100.309532 0.000000 0.000000 0.000000 20.725054 0.781246 0.175898 -30.447546 0.712148 -56.178379 5.588009 2.050767 -0.214706 -2.812533 -0.096698 -0.019508 -74.893997 -18.341932 -22.774345 -27.390675 -0.631572 6.619841 9.158899 -0.228836 -6.208262 2.792995 0.077173 -0.019521 31.739851 15.693116 -69.438408 69.470131 1.335429 4.860947 -0.683054 -12.907805 -5.572160 -27.522526 20.562445 -5.703384 51.113194 -4.642495 -4.160152 -27.724707 0.905123 -13.051326 -37.594902 -23.202463 19.678782 54.493069 3.751339 4.067737 -17.180407 -1.764484 23.782270 
-6.596237 36.611790 43.223705 -1.200990 -0.218510 -100.310249 0.000000 0.000000 0.000000 20.723808 0.615233 0.107521 -30.032488 0.875579 -56.865669 5.588009 2.050767 -0.214706 -2.812533 -0.096698 -0.019508 -73.773300 -18.093014 -22.547146 -27.898455 -1.027830 6.889944 8.634642 -0.285854 -6.205942 2.792995 0.077173 -0.019521 33.404034 15.646445 -69.622574 70.621788 1.401405 4.706262 -0.813484 -11.592302 -5.535685 -27.590620 20.513329 -5.044504 50.939392 -4.302242 -4.232110 -27.521580 0.848733 -13.058181 -37.286400 -22.840033 19.735960 53.791866 3.673513 3.968678 -16.829090 -1.518580 23.782127 
-6.632753 36.692581 43.424362 -1.114518 -0.202780 -100.310532 0.000000 0.000000 0.000000 20.723389 0.537109 0.078213 -29.698069 1.037667 -57.553825 5.588009 2.050767 -0.214706 -2.812533 -0.096698 -0.019508 -72.564056 -17.815676 -22.343121 -28.323538 -1.337338 7.102221 8.110379 -0.342848 -6.203055 2.792995 0.077173 -0.019521 34.942879 15.643104 -69.745903 71.764168 1.437001 4.727430 -0.946598 -10.196503 -5.491982 -27.585020 20.418161 -4.416283 50.791740 -4.036387 -4.002167 -26.985044 0.642932 -13.083621 -37.013729 -22.576399 19.581400 53.091164 3.517218 3.920883 -16.595201 -1.397967 24.138691 
-6.669199 36.773361 43.624622 -1.028046 -0.187049 -100.310829 0.000000 0.000000 0.000000 20.723040 0.449219 0.048903 -29.366440 1.197708 -58.252621 5.588009 2.050767 -0.214706 -2.812533 -0.096698 -0.019508 -71.363518 -17.535641 -22.137896 -28.745520 -1.659904 7.312423 7.586177 -0.398524 -6.209321 2.792995 0.077173 -0.019521 36.484085 15.633629 -69.865189 72.896713 1.481294 4.738929 -1.086957 -8.793857 -5.470149 -27.582281 20.318771 -3.790170 50.623741 -3.782728 -3.756823 -26.416485 0.420087 -13.093523 -36.735516 -22.304016 19.433752 52.390453 3.361195 3.875936 -16.369795 -1.257896 24.504145 
-6.669199 36.847691 43.624622 -0.855103 -0.155585 -100.311356 0.000000 0.000000 0.000000 20.722609 0.292969 -0.009766 -28.951792 1.276040 -58.919903 5.588009 2.050767 -0.214706 -2.812533 -0.096698 -0.019508 -70.245934 -17.334045 -21.966526 -29.169914 -2.039918 7.562565 7.061912 -0.455544 -6.205468 2.792995 0.077173 -0.019521 38.111984 15.639030 -70.009460 74.049103 1.505357 4.573540 -1.217538 -7.490590 -5.447830 -27.468973 20.233227 -3.142693 50.443047 -3.667672 -3.709602 -26.153982 0.517959 -13.142184 -36.530285 -21.962254 19.583679 51.960464 3.341805 3.841416 -16.112774 -1.095762 24.550024 
-6.669271 36.922024 43.625015 -0.682160 -0.124120 -100.311775 0.000000 0.000000 0.000000 20.732248 0.126953 -0.078125 -28.528099 1.355258 -59.587780 5.588009 2.050767 -0.214706 -2.812533 -0.096698 -0.019508 -69.145988 -17.133299 -21.786146 -29.581976 -2.422570 7.810376 6.537636 -0.512527 -6.201020 2.792995 0.077173 -0.019521 39.751892 15.643614 -70.152977 75.201515 1.528448 4.407874 -1.337695 -6.174617 -5.435420 -27.348925 20.123964 -2.502469 50.282597 -3.558028 -3.637232 -25.904701 0.611363 -13.160682 -36.321152 -21.629417 19.748154 51.510918 3.322159 3.805493 -15.845017 -0.950826 24.606441 
-6.705787 36.999580 43.825672 -0.509218 -0.092654 -100.312096 0.000000 0.000000 0.000000 20.722748 -0.039062 -0.136725 -28.172604 1.517695 -60.357342 5.588009 2.050767 -0.214706 -2.812533 -0.096698 -0.019508 -67.954788 -16.828074 -21.569340 -30.012527 -2.797237 8.045834 6.013352 -0.569466 -6.196045 2.792995 0.077173 -0.019521 41.294094 15.603098 -70.315964 76.344101 1.560227 4.418145 -1.472971 -4.863198 -5.435262 -27.255058 20.028740 -2.061760 50.194191 -3.577579 -3.619293 -25.555342 0.429106 -12.946372 -36.047234 -21.356003 19.735153 50.892044 3.322097 3.823336 -15.545654 -0.824694 24.748171 
-6.742303 37.077118 44.026321 -0.336276 -0.061187 -100.312325 0.000000 0.000000 0.000000 20.723391 -0.205077 -0.205112 -27.827957 1.684937 -61.128712 5.588009 2.050767 -0.214706 -2.812533 -0.096698 -0.019508 -66.763329 -16.525341 -21.354719 -30.440634 -3.175743 8.278491 5.488009 -0.616692 -6.189625 2.792995 0.077173 -0.019521 42.834316 15.560907 -70.483421 77.476868 1.600713 4.438362 -1.602347 -3.542567 -5.416013 -27.167276 19.940922 -1.614822 50.105576 -3.587449 -3.616373 -25.194052 0.298110 -12.708770 -35.781445 -21.091982 19.737669 50.282555 3.330009 3.845225 -15.263239 -0.685276 24.908628 
-6.778821 37.144981 44.226974 -0.163334 -0.029720 -100.312462 0.000000 0.000000 0.000000 20.724363 -0.371090 -0.263730 -27.414097 1.857728 -61.794312 5.588009 2.050767 -0.214706 -2.812533 -0.096698 -0.019508 -65.666809 -16.289761 -21.169735 -30.867760 -3.548386 8.508886 4.964752 -0.683197 -6.184629 2.792995 0.077173 -0.019521 44.471226 15.528853 -70.583992 78.717323 1.621636 4.365884 -1.718692 -2.237891 -5.407743 -27.271433 19.860653 -1.181680 49.931404 -3.350853 -3.497241 -24.731848 0.197879 -12.741437 -35.542217 -20.751013 19.593344 49.661385 3.146440 3.811894 -14.936918 -0.427161 25.005621 
-6.815337 37.212841 44.427628 0.000000 0.000000 -100.312500 0.000000 0.000000 0.000000 20.725676 -0.537101 -0.322343 -26.992973 2.029728 -62.471210 5.588009 2.050767 -0.214706 -2.812533 -0.096698 -0.019508 -64.569054 -16.057280 -20.982252 -31.294048 -3.915137 8.735811 4.440433 -0.739979 -6.178084 2.792995 0.077173 -0.019521 46.101479 15.488578 -70.677986 79.948044 1.641336 4.283830 -1.844910 -0.921798 -5.397014 -27.379070 19.772921 -0.736592 49.767567 -3.086960 -3.368268 -24.284906 0.089720 -12.790595 -35.305862 -20.408955 19.472172 49.059334 2.961218 3.791113 -14.616670 -0.173785 25.098434 
-6.851853 37.277473 44.628281 0.000000 0.000000 -100.312500 0.000000 0.000000 0.000000 20.725676 -0.537101 -0.322343 -26.653406 2.196346 -63.149319 5.588009 2.050767 -0.214706 -2.812533 -0.096698 -0.019508 -63.371288 -15.897661 -20.763895 -31.817860 -4.281521 8.950241 3.916102 -0.796699 -6.171151 2.792995 0.077173 -0.019521 47.688671 15.587446 -70.868683 81.012672 1.668545 4.208731 -1.956347 0.297470 -5.401216 -27.365120 19.848000 -0.036464 49.782806 -2.962211 -3.314188 -24.093128 -0.088910 -12.782665 -35.013588 -20.057579 19.629187 48.522064 2.890342 3.787970 -14.458641 0.096072 25.223583 
-6.888295 37.341972 44.828526 0.000000 0.000000 -100.312500 0.000000 0.000000 0.000000 20.725676 -0.537101 -0.322343 -26.323637 2.370928 -63.820080 5.588009 2.050767 -0.214706 -2.812533 -0.096698 -0.019508 -62.170818 -15.739341 -20.532970 -32.341816 -4.637476 9.153356 3.391611 -0.853931 -6.153819 2.792995 0.077173 -0.019521 49.275501 15.699754 -71.052788 82.067505 1.704610 4.124153 -2.073476 1.514686 -5.401798 -27.337162 19.926914 0.656468 49.777534 -2.854891 -3.266765 -23.897650 -0.235094 -12.753065 -34.699451 -19.695972 19.744535 48.003582 2.805062 3.819846 -14.300083 0.344793 25.326101 
-6.888295 37.341972 44.828526 0.000000 0.000000 -100.312500 0.000000 0.000000 0.000000 20.725676 -0.537101 -0.322343 -26.463991 2.560311 -62.531292 5.588009 2.050767 -0.214706 -2.812533 -0.096698 -0.019508 -62.082745 -15.725758 -20.565592 -32.341816 -4.637476 9.153356 3.391611 -0.853931 -6.153819 2.792995 0.077173 -0.019521 48.591217 15.813908 -71.159645 82.067505 1.704610 4.124153 -2.073476 1.514686 -5.401798 -27.337162 19.926914 0.656468 49.777534 -2.854891 -3.266765 -23.897650 -0.235094 -12.753065 -34.699451 -19.695972 19.744535 48.003582 2.805062 3.819846 -14.300083 0.344793 25.326101 
-6.888295 37.341972 44.828526 0.000000 0.000000 -100.312500 0.000000 0.000000 0.000000 20.725676 -0.537101 -0.322343 -26.589632 2.750722 -61.242756 5.588009 2.050767 -0.214706 -2.812533 -0.096698 -0.019508 -61.983551 -15.712886 -20.592192 -32.341816 -4.637476 9.153356 3.391611 -0.853931 -6.153819 2.792995 0.077173 -0.019521 47.900433 15.929125 -71.262611 82.067505 1.704610 4.124153 -2.073476 1.514686 -5.401798 -27.337162 19.926914 0.656468 49.777534 -2.854891 -3.266765 -23.897650 -0.235094 -12.753065 -34.699451 -19.695972 19.744535 48.003582 2.805062 3.819846 -14.300083 0.344793 25.326101 
-6.888295 37.341972 44.828526 0.000000 0.000000 -100.312500 0.000000 0.000000 0.000000 20.725676 -0.537101 -0.322343 -26.648745 2.952047 -59.945175 5.588009 2.050767 -0.214706 -2.812533 -0.096698 -0.019508 -61.912426 -15.613377 -20.621399 -32.341816 -4.637476 9.153356 3.391611 -0.853931 -6.153819 2.792995 0.077173 -0.019521 47.282742 16.141491 -71.425278 82.067505 1.704610 4.124153 -2.073476 1.514686 -5.401798 -27.337162 19.926914 0.656468 49.777534 -2.854891 -3.266765 -23.897650 -0.235094 -12.753065 -34.699451 -19.695972 19.744535 48.003582 2.805062 3.819846 -14.300083 0.344793 25.326101 
